<svg width="28" height="28" viewBox="0 0 28 28" fill="none" xmlns="http://www.w3.org/2000/svg">
<path d="M22.6933 27.61C19.8529 27.61 17.5421 25.2992 17.5421 22.4589C17.5421 21.7656 17.6807 21.0892 17.9542 20.4484C18.4636 19.2325 19.4566 18.2345 20.6774 17.7139C20.6935 17.7071 20.7101 17.7009 20.7267 17.6956C21.3459 17.4381 22.0071 17.3077 22.6933 17.3077C25.5337 17.3077 27.8448 19.6185 27.8448 22.4589C27.8448 25.2992 25.5337 27.61 22.6933 27.61ZM21.091 18.7922C20.1619 19.2004 19.4075 19.9658 19.0171 20.8977C18.8036 21.3983 18.696 21.9222 18.696 22.4589C18.696 24.6629 20.4893 26.4562 22.6933 26.4562C24.8976 26.4562 26.6909 24.6629 26.6909 22.4589C26.6909 20.2548 24.8976 18.4615 22.6933 18.4615C22.1474 18.4615 21.6234 18.5672 21.1358 18.7753C21.1211 18.7815 21.1062 18.7872 21.091 18.7922Z" fill="#0069B4"/>
<path d="M5.54113 10.4564C5.25014 10.4564 4.95688 10.4325 4.66392 10.3843C2.4413 10.0176 0.698978 8.19186 0.427137 5.94473C0.347134 5.28527 0.390516 4.63031 0.555875 3.99846C0.607989 3.79845 0.763488 3.64154 0.962932 3.58746C1.16238 3.53309 1.37591 3.59028 1.52183 3.73648L3.67148 5.88585H5.49803L6.28623 5.09766V3.27111L4.23967 1.22427C4.08925 1.07384 4.03375 0.852708 4.09544 0.649038C4.15714 0.44565 4.32588 0.292405 4.53433 0.250714C4.85575 0.186486 5.1938 0.153809 5.53944 0.153809C8.37983 0.153809 10.6909 2.4646 10.6909 5.30499C10.6909 5.99177 10.5548 6.66673 10.2861 7.31098C9.76777 8.53384 8.7728 9.53106 7.55557 10.05C7.53895 10.057 7.52205 10.0632 7.50515 10.0688C6.88625 10.326 6.21975 10.4564 5.54113 10.4564ZM7.32937 9.51923H7.335H7.32937ZM1.54295 5.38922C1.54577 5.52753 1.55563 5.66669 1.57253 5.80613C1.78324 7.54761 3.13175 8.96203 4.85181 9.2457C5.6279 9.37359 6.4037 9.28514 7.09668 8.98879C7.1119 8.98231 7.12739 8.97639 7.14288 8.97132C8.06996 8.5637 8.82661 7.79776 9.22268 6.86364C9.43086 6.36418 9.53706 5.83853 9.53706 5.30499C9.53706 3.24914 7.977 1.55104 5.97861 1.3316L7.27106 2.62432C7.37923 2.7325 7.44008 2.87926 7.44008 3.03223V5.33654C7.44008 5.4895 7.37923 5.63627 7.27106 5.74444L6.14482 6.87068C6.03664 6.97885 5.88988 7.0397 5.73691 7.0397H3.4326C3.27964 7.0397 3.13287 6.97885 3.0247 6.87068L1.54295 5.38922Z" fill="#0069B4"/>
<path d="M20.902 18.8192C20.7541 18.8192 20.6065 18.7629 20.4938 18.6499L17.0844 15.2346C16.8593 15.009 16.8596 14.6439 17.085 14.4188C17.3106 14.194 17.6757 14.1934 17.9008 14.4194L21.3102 17.8347C21.5356 18.0603 21.535 18.4254 21.3096 18.6505C21.197 18.7629 21.0496 18.8192 20.902 18.8192Z" fill="#0069B4"/>
<path d="M13.1712 11.0887C13.0233 11.0887 12.8757 11.0323 12.763 10.9194L9.34769 7.49809C9.12233 7.27245 9.1229 6.90737 9.34826 6.68229C9.5739 6.45721 9.93898 6.45721 10.1641 6.68285L13.5794 10.1041C13.8048 10.3298 13.8042 10.6948 13.5788 10.9199C13.4662 11.0323 13.3185 11.0887 13.1712 11.0887Z" fill="#0069B4"/>
<path d="M10.7485 13.5174C10.6009 13.5174 10.4533 13.4611 10.3406 13.3484L6.91939 9.92745C6.69403 9.70209 6.69403 9.33701 6.91939 9.11165C7.14475 8.88629 7.50983 8.88629 7.73519 9.11165L11.1564 12.5326C11.3818 12.758 11.3818 13.1231 11.1564 13.3484C11.0438 13.4611 10.8962 13.5174 10.7485 13.5174Z" fill="#0069B4"/>
<path d="M18.4848 21.254C18.3372 21.254 18.1896 21.1977 18.0769 21.085L14.6559 17.6637C14.4305 17.4384 14.4305 17.0733 14.6559 16.8479C14.8813 16.6226 15.2463 16.6226 15.4717 16.8479L18.8927 20.2692C19.118 20.4945 19.118 20.8596 18.8927 21.085C18.78 21.1977 18.6324 21.254 18.4848 21.254Z" fill="#0069B4"/>
<path d="M23.8539 25.0454H21.5327C21.3265 25.0454 21.1361 24.9355 21.0329 24.7569L19.8723 22.7467C19.7695 22.5681 19.7695 22.3484 19.8723 22.1698L21.0329 20.1593C21.1361 19.9807 21.3265 19.8708 21.5327 19.8708H23.8539C24.0601 19.8708 24.2505 19.9807 24.3536 20.1593L25.5142 22.1698C25.6171 22.3484 25.6171 22.5681 25.5142 22.7467L24.3536 24.7569C24.2505 24.9355 24.0601 25.0454 23.8539 25.0454ZM21.8657 23.8916H23.5209L24.3483 22.4583L23.5206 21.0247H21.8659L21.0383 22.4583L21.8657 23.8916Z" fill="#0069B4"/>
<path d="M13.3616 19.2233C13.0216 19.2233 12.6819 19.094 12.423 18.8351L9.1654 15.5835C8.65411 15.0615 8.65411 14.2231 9.15948 13.7079L21.6307 1.23644C23.0234 -0.149813 25.2835 -0.14925 26.6694 1.23644L26.7554 1.317C28.1568 2.7179 28.1568 4.97855 26.7675 6.36762L14.3002 18.8351C14.0414 19.094 13.7016 19.2233 13.3616 19.2233ZM24.1479 1.35137C23.5307 1.35137 22.9152 1.58575 22.4456 2.05337L9.97839 14.5209C9.91472 14.5857 9.91472 14.6995 9.98346 14.7696L13.2388 18.0193C13.3075 18.0881 13.4157 18.0881 13.4844 18.0193L25.9517 5.55181C26.4063 5.09715 26.6568 4.49205 26.6568 3.84837C26.6568 3.2044 26.4063 2.59931 25.9517 2.14464L25.8657 2.06407C25.39 1.58828 24.7682 1.35137 24.1479 1.35137Z" fill="#0069B4"/>
<path d="M2.24498 27.8461C2.09568 27.8461 1.94806 27.7884 1.83679 27.6771L0.324623 26.1647C0.135884 25.9759 0.101235 25.6827 0.240677 25.4553L2.18554 22.2828C2.38583 21.9561 2.71711 21.729 3.09402 21.6597C3.46981 21.5893 3.86025 21.6848 4.16392 21.9192C4.24139 21.9792 4.28252 22.0152 4.32083 22.0538L5.77469 23.5077C5.80511 23.5381 5.83413 23.5702 5.86173 23.6037L6.03949 23.8218C6.28597 24.1237 6.38992 24.5178 6.32485 24.9021C6.2595 25.2869 6.0316 25.6244 5.69891 25.8283L2.54612 27.7611C2.45287 27.8183 2.34864 27.8461 2.24498 27.8461ZM1.46213 25.6706L2.3309 26.5396L5.09579 24.8449C5.16227 24.8041 5.18143 24.7424 5.18706 24.7091C5.19269 24.6762 5.19495 24.6117 5.14537 24.5508L4.95888 24.3235L3.50503 22.8696C3.50446 22.8693 3.45911 22.8327 3.45854 22.8324C3.39826 22.7857 3.33572 22.7899 3.3022 22.7947C3.2698 22.8006 3.20924 22.8203 3.16924 22.886L1.46213 25.6706Z" fill="#0069B4"/>
<path d="M3.64663 22.7724C3.49901 22.7724 3.3514 22.7161 3.23872 22.6034C3.01336 22.378 3.01336 22.0126 3.23872 21.7876L9.71502 15.3124C9.94038 15.087 10.3055 15.087 10.5308 15.3124C10.7562 15.5378 10.7562 15.9031 10.5308 16.1282L4.05453 22.6034C3.94185 22.7161 3.79424 22.7724 3.64663 22.7724Z" fill="#0069B4"/>
<path d="M5.80513 24.9309C5.65752 24.9309 5.50991 24.8746 5.39723 24.7619C5.17187 24.5365 5.17187 24.1712 5.39723 23.9461L11.8735 17.4712C12.0989 17.2458 12.464 17.2458 12.6893 17.4712C12.9147 17.6966 12.9147 18.0619 12.6893 18.287L6.21304 24.7619C6.10036 24.8746 5.95274 24.9309 5.80513 24.9309Z" fill="#0069B4"/>
<path d="M13.3601 15.2177C13.2125 15.2177 13.0649 15.1614 12.9522 15.0487C12.7269 14.8233 12.7269 14.4582 12.9522 14.2329L23.745 3.44008C23.9704 3.21472 24.3355 3.21472 24.5608 3.44008C24.7862 3.66544 24.7862 4.03052 24.5608 4.25588L13.768 15.0487C13.6553 15.1614 13.5077 15.2177 13.3601 15.2177Z" fill="#0069B4"/>
</svg>
